<svg xmlns="http://www.w3.org/2000/svg" width="1920" height="941.5" viewBox="0 0 1920 941.5">
  <g id="Group_49" data-name="Group 49" transform="translate(0 -139)">
    <rect id="Rectangle_12" data-name="Rectangle 12" width="1920" height="941" transform="translate(0 139)" fill="#f8f8f8"/>
    <path id="Subtraction_2" data-name="Subtraction 2" d="M531.794,885.5H68V0C74.794,4.05,81.552,8.5,88.087,13.213c6.238,4.5,12.482,9.408,18.56,14.575a370.164,370.164,0,0,1,33.463,32.526c9.421,10.3,19.277,22.027,30.132,35.852,9.685,12.335,19.307,25.235,28.612,37.71l0,0,.035.047.015.02c16.123,21.615,32.795,43.966,51.024,65.128,9.824,11.406,19.261,21.511,28.849,30.892a377.646,377.646,0,0,0,32.624,28.58,338.263,338.263,0,0,0,37.569,25.376c6.806,3.953,13.873,7.724,21,11.209,7.358,3.594,14.988,6.982,22.677,10.072,7.935,3.188,16.178,6.157,24.5,8.825,8.564,2.747,17.468,5.259,26.464,7.466,9.231,2.267,18.845,4.285,28.575,6,9.948,1.751,20.322,3.237,30.834,4.415A218.861,218.861,0,0,1,540.59,339.4a188.572,188.572,0,0,1,33.1,13.244,173.766,173.766,0,0,1,52.645,41.8,198.168,198.168,0,0,1,34.286,58.989c8.294,22,13.54,46.325,15.592,72.305a353.084,353.084,0,0,1-2.617,76.146,445.292,445.292,0,0,1-19.492,81.229,528.583,528.583,0,0,1-36.641,83.157A597.035,597.035,0,0,1,563.406,848.2c-9.936,12.685-20.572,25.235-31.612,37.3Z" transform="translate(-68 195)" fill="#5340bc" opacity="0.04"/>
  </g>
</svg>
