<svg xmlns="http://www.w3.org/2000/svg" width="128.033" height="104.414" viewBox="0 0 128.033 104.414">
  <g id="Group_6" data-name="Group 6" transform="translate(-1363.947 -2148)">
    <g id="noun_Handshake_398961" transform="translate(1363.947 2148)">
      <path id="Path_4" data-name="Path 4" d="M66.508,60.228a1.9,1.9,0,0,1,0-2.693,1.946,1.946,0,0,1,2.69,0L100.539,88.8A7.237,7.237,0,0,0,110.7,78.635L75.981,43.846l-21-6.017c-6.273-2.155-9.727-6.381-9.724-11.9a10.975,10.975,0,0,1,1.366-5.293L48.571,17.1l-3.991.615a40.853,40.853,0,0,0-22.82,11.55,41.335,41.335,0,0,0,0,58.388L53.5,119.4a7.238,7.238,0,1,0,10.233-10.238L40.653,86.08a1.906,1.906,0,0,1,0-2.69,1.946,1.946,0,0,1,2.693,0l32.21,32.21a7.238,7.238,0,0,0,10.815-9.584l-.669-.743L53.58,73.15a1.9,1.9,0,0,1,0-2.69,1.945,1.945,0,0,1,2.692,0l38.061,38.062.889.812a7.236,7.236,0,0,0,9.7-10.692Zm59.12-30.964A41.051,41.051,0,0,0,96.419,17.181L56.28,18.7a7.253,7.253,0,0,0-7.221,7.24c0,3.765,2.474,6.689,7.064,8.264l26.32,7.54a1.906,1.906,0,0,1,1.332,2.252c-.054.1-.106.2-.154.3l-.562,1.25,29.522,29.52.321.321a11.024,11.024,0,0,1-3.951,18.028l-2.608,1,1.8,2.138a11.11,11.11,0,0,1,1.752,2.951l1.131,2.762L125.628,87.65a41.283,41.283,0,0,0,0-58.386Z" transform="translate(-9.688 -17.103)" fill="#5340bc"/>
    </g>
    <g id="noun_Handshake_398961-2" data-name="noun_Handshake_398961" transform="translate(1363.947 2148)">
      <path id="Path_4-2" data-name="Path 4" d="M66.51,57.535a1.946,1.946,0,0,1,2.69,0L100.539,88.8a7.24,7.24,0,0,0,9.584-.576c1.367-1.364,1.575-8.318-34.141-44.38l-21-6.017c-6.273-2.155-9.727-6.381-9.724-11.9a10.975,10.975,0,0,1,1.366-5.293L48.571,17.1l-3.991.615a40.853,40.853,0,0,0-22.82,11.55,41.335,41.335,0,0,0,0,58.388L53.5,119.4a7.238,7.238,0,1,0,10.233-10.238L40.653,86.08a1.906,1.906,0,0,1,0-2.69,1.946,1.946,0,0,1,2.693,0l32.21,32.21a7.238,7.238,0,0,0,10.815-9.584l-.669-.743L53.58,73.15a1.9,1.9,0,0,1,0-2.69,1.945,1.945,0,0,1,2.692,0l38.061,38.062.889.812a7.236,7.236,0,0,0,9.7-10.692S66.148,57.9,66.51,57.535Z" transform="translate(-9.688 -17.103)"/>
    </g>
  </g>
</svg>
