<svg xmlns="http://www.w3.org/2000/svg" width="149.737" height="147.134" viewBox="0 0 149.737 147.134">
  <g id="Group_2" data-name="Group 2" transform="translate(-776 -2092)">
    <g id="noun_Value_2254215" transform="translate(776 2092)">
      <g id="Group_1" data-name="Group 1" transform="translate(0 0)">
        <path id="Path_2" data-name="Path 2" d="M75.4,289.062l-5.348,10.7-10.7,5.348,10.7,5.347,5.348,10.7,5.348-10.7,10.7-5.347-10.7-5.348ZM16.572,310.453l-5.348,10.7L.529,326.5l10.7,5.348,5.348,10.7,5.348-10.7,10.7-5.348-10.7-5.347Zm117.65,0-5.348,10.7-10.7,5.347,10.7,5.348,5.348,10.7,5.348-10.7,10.7-5.348-10.7-5.347Zm-89.1,21.391L14.891,369.5l3.071,3.374L75.4,436.052l60.569-66.617-31.324-37.591Zm5.128,10.7h7.029l-7.123,21.391H33.075Zm18.31,0H82.239l7.123,21.391H61.433Zm24.963,0h6.11l17.829,21.391H100.642ZM34,374.626H50.152L59.5,402.671Zm27.428,0H89.362L75.4,416.551Zm39.21,0H116.78L91.3,402.649Z" transform="translate(-0.529 -289.062)" fill="#5340bc"/>
      </g>
    </g>
    <g id="noun_Value_2254215-2" data-name="noun_Value_2254215" transform="translate(790.309 2134.927)">
      <g id="Group_1-2" data-name="Group 1" transform="translate(0 0)">
        <path id="Path_2-2" data-name="Path 2" d="M79.937,435.567,49.71,473.221l3.071,3.374,57.436,63.18,60.569-66.617-31.324-37.591Zm5.128,10.7h7.029l-7.123,21.391H67.894Zm18.31,0h13.683l7.123,21.391H96.252Zm24.963,0h6.11l17.829,21.391H135.461ZM68.824,478.349H84.971l9.348,28.044Zm27.428,0h27.929l-13.965,41.925Zm39.21,0H151.6l-25.475,28.023Z" transform="translate(-49.71 -435.567)"/>
      </g>
    </g>
  </g>
</svg>
