<svg xmlns="http://www.w3.org/2000/svg" width="20.631" height="37.311" viewBox="0 0 20.631 37.311">
  <g id="facebook-logo" transform="translate(0.5 0.5)" opacity="0.5">
    <path id="Path_59" data-name="Path 59" d="M40.969.008,36.26,0c-5.29,0-8.709,3.507-8.709,8.936v4.12H22.817a.74.74,0,0,0-.74.741v5.97a.74.74,0,0,0,.74.74h4.734V35.571a.74.74,0,0,0,.74.74h6.177a.74.74,0,0,0,.74-.74V20.507h5.536a.74.74,0,0,0,.74-.74l0-5.97a.741.741,0,0,0-.741-.741H35.209V9.564c0-1.679.4-2.531,2.587-2.531h3.172a.74.74,0,0,0,.74-.74V.748A.741.741,0,0,0,40.969.008Z" transform="translate(-22.077)" fill="#2a2a2a" stroke="#fff" stroke-width="1"/>
  </g>
</svg>
