<svg xmlns="http://www.w3.org/2000/svg" width="34.911" height="34.911" viewBox="0 0 34.911 34.911">
  <g id="instagram" transform="translate(0.5 0.5)" opacity="0.5">
    <g id="Group_42" data-name="Group 42">
      <g id="Group_41" data-name="Group 41">
        <path id="Path_57" data-name="Path 57" d="M23.314,0H10.6A10.6,10.6,0,0,0,0,10.6V23.314a10.6,10.6,0,0,0,10.6,10.6H23.314a10.6,10.6,0,0,0,10.6-10.6V10.6A10.6,10.6,0,0,0,23.314,0Zm7.418,23.314a7.426,7.426,0,0,1-7.418,7.418H10.6a7.426,7.426,0,0,1-7.418-7.418V10.6A7.426,7.426,0,0,1,10.6,3.179H23.314A7.426,7.426,0,0,1,30.732,10.6Z" fill="#2a2a2a" stroke="#fff" stroke-width="1"/>
      </g>
    </g>
    <g id="Group_44" data-name="Group 44" transform="translate(8.478 8.478)">
      <g id="Group_43" data-name="Group 43">
        <path id="Path_58" data-name="Path 58" d="M136.478,128a8.478,8.478,0,1,0,8.478,8.478A8.478,8.478,0,0,0,136.478,128Zm0,13.776a5.3,5.3,0,1,1,5.3-5.3A5.306,5.306,0,0,1,136.478,141.776Z" transform="translate(-128 -128)" fill="#2a2a2a" stroke="#fff" stroke-width="1"/>
      </g>
    </g>
    <g id="Group_46" data-name="Group 46" transform="translate(24.939 6.712)">
      <g id="Group_45" data-name="Group 45">
        <circle id="Ellipse_12" data-name="Ellipse 12" cx="1.13" cy="1.13" r="1.13" fill="#2a2a2a" stroke="#fff" stroke-width="1"/>
      </g>
    </g>
  </g>
</svg>
