<svg xmlns="http://www.w3.org/2000/svg" width="114.648" height="114.526" viewBox="0 0 114.648 114.526">
  <g id="Group_5" data-name="Group 5" transform="translate(-1217 -2227)">
    <g id="noun_professional_213724" transform="translate(1217 2227)">
      <g id="Group_4" data-name="Group 4" transform="translate(0 0)">
        <g id="Group_3" data-name="Group 3">
          <path id="Path_3" data-name="Path 3" d="M12.719,54.844C8.952,54.491,5.3,54.138,1.3,53.9,3.655,34.6,12.6,19.527,29.2,9.638,46.389-.6,64.4-.958,82.766,6.812c-1.648,3.649-3.3,6.946-4.827,10.36C47.1,3.163,14.838,25.531,12.719,54.844Zm91.119-4c2,13.3-.824,25.429-8.947,36.024-8.123,10.478-18.954,16.246-32.257,17.659.353,3.767.589,7.417.942,11.184,27.9-.942,57.685-28.96,51.564-66.868C111.373,49.547,107.724,50.135,103.839,50.842ZM12.6,62.85c-3.532.353-7.181.589-10.948.942.824,23.31,21.191,49.562,51.917,52.152.353-3.767.706-7.534.942-11.066C30.614,100.757,16.6,86.866,12.6,62.85ZM95.009,30.828a51.843,51.843,0,0,1,6.828,12.243c3.532-1.295,7.064-2.59,10.831-3.885A57.79,57.79,0,0,0,91.6,11.757C89.359,14.935,87.24,18,85,21.175A51.789,51.789,0,0,1,95.009,30.828ZM86.651,83.334a113.475,113.475,0,0,0-16.717-10.36.647.647,0,0,1-.353-.589V59.436a5.989,5.989,0,0,0,2.708-5.062V40.835A12.108,12.108,0,0,0,60.163,28.709H57.22A12.108,12.108,0,0,0,45.094,40.835V54.373A5.989,5.989,0,0,0,47.8,59.436v12.95a.647.647,0,0,1-.353.589,107.376,107.376,0,0,0-16.717,10.36A37.242,37.242,0,0,0,55.218,95.813l2-9.183c-5.651-7.888.471-8.358,1.53-8.358h0c1.06,0,7.181.353,1.53,8.358l2,9.183A37.5,37.5,0,0,0,86.651,83.334Z" transform="translate(-1.3 -1.418)" fill="#5340bc"/>
        </g>
      </g>
    </g>
    <g id="noun_professional_213724-2" data-name="noun_professional_213724" transform="translate(1217 2227)">
      <g id="Group_3-2" data-name="Group 3" transform="translate(0 0)">
        <path id="Path_3-2" data-name="Path 3" d="M12.719,54.844C8.952,54.491,5.3,54.138,1.3,53.9,3.655,34.6,12.6,19.527,29.2,9.638,46.389-.6,64.4-.958,82.766,6.812c-1.648,3.649-3.3,6.946-4.827,10.36C47.1,3.163,14.838,25.531,12.719,54.844Zm91.119-4c2,13.3-.824,25.429-8.947,36.024-8.123,10.478-18.954,16.246-32.257,17.659.353,3.767.589,7.417.942,11.184,27.9-.942,57.685-28.96,51.564-66.868C111.373,49.547,107.724,50.135,103.839,50.842ZM12.6,62.85c-3.532.353-7.181.589-10.948.942.824,23.31,21.191,49.562,51.917,52.152.353-3.767.706-7.534.942-11.066C30.614,100.757,16.6,86.866,12.6,62.85ZM95.009,30.828a51.843,51.843,0,0,1,6.828,12.243c3.532-1.295,7.064-2.59,10.831-3.885A57.79,57.79,0,0,0,91.6,11.757C89.359,14.935,87.24,18,85,21.175A51.789,51.789,0,0,1,95.009,30.828Z" transform="translate(-1.3 -1.418)"/>
      </g>
    </g>
  </g>
</svg>
