<svg xmlns="http://www.w3.org/2000/svg" width="1920.5" height="890" viewBox="0 0 1920.5 890">
  <g id="Group_49" data-name="Group 49" transform="translate(0 -2958)">
    <rect id="Rectangle_9" data-name="Rectangle 9" width="1920" height="890" transform="translate(0 2958)" fill="#ebebeb" opacity="0.368"/>
    <path id="Subtraction_1" data-name="Subtraction 1" d="M673.068,893.009h0c-31.589-2.62-58.128-4.45-83.519-5.759-32.989-1.7-64.078-2.528-95.046-2.528-17.926,0-35.993.288-53.7.857-18.943.608-38.112,1.557-56.974,2.82-26.365,1.766-51.618,2.662-75.059,2.664h-.059c-18.633,0-36.572-.567-53.319-1.686-16.37-1.094-32.053-2.745-46.614-4.907-14.2-2.109-27.736-4.764-40.218-7.889a303.625,303.625,0,0,1-34.188-10.633,222.342,222.342,0,0,1-28.526-13.139A169.338,169.338,0,0,1,82.615,837.4a138.168,138.168,0,0,1-18.3-17.434,122.462,122.462,0,0,1-21.347-34.853A130.729,130.729,0,0,1,37.612,768.7a155.647,155.647,0,0,1-4.59-34.784,214.794,214.794,0,0,1,2.5-36.689,306.3,306.3,0,0,1,8.3-37.762c3.431-12.1,7.747-24.89,12.827-38,4.629-11.949,10.036-24.536,16.069-37.41,10.047-21.439,22.065-44.243,36.74-69.715a217.4,217.4,0,0,1,15.317-23.091,206.75,206.75,0,0,1,17.033-19.665,225.809,225.809,0,0,1,38.349-31.057c6.536-4.255,13.367-8.31,20.883-12.395,6.705-3.645,13.814-7.234,21.733-10.974,14.725-6.955,30.191-13.43,45.148-19.693,19.309-8.084,39.274-16.444,58.635-26.2C336.99,366,346.37,360.8,355.23,355.34a293.113,293.113,0,0,0,27.644-19.2,259.173,259.173,0,0,0,50.384-52.419,295.249,295.249,0,0,0,21.835-35.313,364.437,364.437,0,0,0,18.993-42.778A172.187,172.187,0,0,1,484.6,182.582a150.571,150.571,0,0,1,13.056-19.859,135.757,135.757,0,0,1,32.836-30.294,142.2,142.2,0,0,1,40.3-17.966,174.022,174.022,0,0,1,45.95-5.925,229.267,229.267,0,0,1,56.332,7.4V893.008Z" transform="translate(1247.432 2926.374)" fill="#5340bc" opacity="0.04"/>
  </g>
</svg>
