<svg xmlns="http://www.w3.org/2000/svg" width="37.194" height="30.238" viewBox="0 0 37.194 30.238">
  <g id="twitter-logo-silhouette" transform="translate(0.54 1.692)">
    <g id="Group_40" data-name="Group 40">
      <path id="Path_56" data-name="Path 56" d="M33.912,60.7a13.893,13.893,0,0,1-3.994,1.1,6.985,6.985,0,0,0,3.058-3.846,14.024,14.024,0,0,1-4.42,1.689A6.962,6.962,0,0,0,16.7,65.981,19.75,19.75,0,0,1,2.364,58.712,6.965,6.965,0,0,0,4.517,68a6.957,6.957,0,0,1-3.151-.873v.087a6.963,6.963,0,0,0,5.579,6.821,7.046,7.046,0,0,1-1.833.244,6.676,6.676,0,0,1-1.31-.129,6.96,6.96,0,0,0,6.5,4.831A13.957,13.957,0,0,1,1.66,81.952,14.781,14.781,0,0,1,0,81.856a19.664,19.664,0,0,0,10.663,3.13c12.8,0,19.792-10.6,19.792-19.792l-.023-.9A13.891,13.891,0,0,0,33.912,60.7Z" transform="translate(-0.001 -57.441)" fill="none" stroke="#939393" stroke-width="2"/>
    </g>
  </g>
</svg>
